<svg width="55" height="45" viewBox="0 0 55 45" fill="none" xmlns="http://www.w3.org/2000/svg">
<path d="M51.5625 0.96875H3.4375C2.62555 0.969599 1.84711 1.27524 1.27298 1.81862C0.698841 2.362 0.375897 3.09873 0.375 3.86719V34.5078C0.375897 35.2763 0.698841 36.013 1.27298 36.5564C1.84711 37.0998 2.62555 37.4054 3.4375 37.4062H21.1825L20.6575 39.8906H17C16.7679 39.8906 16.5454 39.9779 16.3813 40.1332C16.2172 40.2885 16.125 40.4991 16.125 40.7188V43.2031C16.125 43.4228 16.2172 43.6334 16.3813 43.7887C16.5454 43.944 16.7679 44.0312 17 44.0312H38C38.2321 44.0312 38.4546 43.944 38.6187 43.7887C38.7828 43.6334 38.875 43.4228 38.875 43.2031V40.7188C38.875 40.4991 38.7828 40.2885 38.6187 40.1332C38.4546 39.9779 38.2321 39.8906 38 39.8906H34.3425L33.8175 37.4062H51.5625C52.3745 37.4054 53.1529 37.0998 53.727 36.5564C54.3012 36.013 54.6241 35.2763 54.625 34.5078V3.86719C54.6241 3.09873 54.3012 2.362 53.727 1.81862C53.1529 1.27524 52.3745 0.969599 51.5625 0.96875ZM37.125 41.5469V42.375H17.875V41.5469H37.125ZM22.4425 39.8906L22.9675 37.4062H32.0325L32.5575 39.8906H22.4425ZM52.875 34.5078C52.8747 34.8372 52.7363 35.153 52.4903 35.3859C52.2442 35.6188 51.9105 35.7497 51.5625 35.75H3.4375C3.08949 35.7497 2.75582 35.6188 2.50974 35.3859C2.26366 35.153 2.12529 34.8372 2.125 34.5078V32.4375H52.875V34.5078ZM52.875 30.7812H2.125V3.86719C2.12529 3.53782 2.26366 3.22203 2.50974 2.98913C2.75582 2.75624 3.08949 2.62527 3.4375 2.625H51.5625C51.9105 2.62527 52.2442 2.75624 52.4903 2.98913C52.7363 3.22203 52.8747 3.53782 52.875 3.86719V30.7812Z" fill="#8761ED"/>
<path d="M28.375 33.2656H26.625C26.3929 33.2656 26.1704 33.3529 26.0063 33.5082C25.8422 33.6635 25.75 33.8741 25.75 34.0938C25.75 34.3134 25.8422 34.524 26.0063 34.6793C26.1704 34.8346 26.3929 34.9219 26.625 34.9219H28.375C28.6071 34.9219 28.8296 34.8346 28.9937 34.6793C29.1578 34.524 29.25 34.3134 29.25 34.0938C29.25 33.8741 29.1578 33.6635 28.9937 33.5082C28.8296 33.3529 28.6071 33.2656 28.375 33.2656Z" fill="#8761ED"/>
</svg>
