<svg width="24" height="24" viewBox="0 0 24 24" fill="none" xmlns="http://www.w3.org/2000/svg">
<g clip-path="url(#clip0_2088_144177)">
<path opacity="0.3" d="M19 17.4705C18.12 17.4005 17.25 17.2505 16.4 17.0205L15.21 18.2105C16.41 18.6205 17.69 18.8805 19.01 18.9605V17.4705H19ZM6.54004 5.00049H5.04004C5.13004 6.32049 5.39004 7.59049 5.79004 8.80049L6.99004 7.60049C6.75004 6.76049 6.60004 5.89049 6.54004 5.00049Z" fill="#697586"/>
<path d="M20 21.0005C20.55 21.0005 21 20.5505 21 20.0005V16.5105C21 15.9605 20.55 15.5105 20 15.5105C18.76 15.5105 17.55 15.3105 16.43 14.9405C16.33 14.9005 16.22 14.8905 16.12 14.8905C15.86 14.8905 15.61 14.9905 15.41 15.1805L13.21 17.3805C10.38 15.9305 8.06 13.6205 6.62 10.7905L8.82 8.59049C9.1 8.31049 9.18 7.92049 9.07 7.57049C8.7 6.45049 8.5 5.25049 8.5 4.00049C8.5 3.45049 8.05 3.00049 7.5 3.00049H4C3.45 3.00049 3 3.45049 3 4.00049C3 13.3905 10.61 21.0005 20 21.0005ZM16.4 17.0205C17.25 17.2605 18.12 17.4105 19 17.4705V18.9605C17.68 18.8705 16.41 18.6105 15.2 18.2105L16.4 17.0205ZM5.03 5.00049H6.53C6.6 5.89049 6.75 6.76049 6.99 7.59049L5.79 8.79049C5.38 7.59049 5.12 6.32049 5.03 5.00049Z" fill="#8761ED"/>
</g>
<defs>
<clipPath id="clip0_2088_144177">
<rect width="24" height="24" fill="white" transform="translate(0 0.000488281)"/>
</clipPath>
</defs>
</svg>
