<svg width="61" height="53" viewBox="0 0 61 53" fill="none" xmlns="http://www.w3.org/2000/svg">
<path d="M40.9644 34.833C40.7071 34.833 40.4603 34.923 40.2783 35.0833C40.0963 35.2437 39.9941 35.4611 39.9941 35.6878V51.2903H11.4173V44.1667C11.4173 43.9399 11.3151 43.7225 11.1331 43.5622C10.9511 43.4019 10.7043 43.3118 10.4469 43.3118H2.36064V1.70968H39.9941V17.3122C39.9941 17.5389 40.0963 17.7563 40.2783 17.9167C40.4603 18.077 40.7071 18.167 40.9644 18.167C41.2218 18.167 41.4686 18.077 41.6506 17.9167C41.8326 17.7563 41.9348 17.5389 41.9348 17.3122V0.854839C41.9348 0.628121 41.8326 0.41069 41.6506 0.250376C41.4686 0.0900631 41.2218 0 40.9644 0L1.39028 0C1.13292 0 0.88611 0.0900631 0.704133 0.250376C0.522156 0.41069 0.419922 0.628121 0.419922 0.854839V44.1667C0.419922 44.1953 0.421604 44.2238 0.424838 44.252C0.427167 44.2728 0.431178 44.293 0.435189 44.3132C0.436612 44.3204 0.437388 44.3278 0.438941 44.335C0.444375 44.3589 0.451361 44.3824 0.458995 44.4056C0.460159 44.409 0.460806 44.4125 0.461971 44.4159C0.470122 44.4395 0.479825 44.4626 0.490176 44.4852C0.491599 44.4883 0.492634 44.4915 0.494057 44.4946C0.504149 44.516 0.515793 44.537 0.527826 44.5575C0.530284 44.5617 0.532225 44.566 0.534812 44.5703C0.546327 44.5893 0.559265 44.6075 0.572462 44.6255C0.576344 44.631 0.579837 44.6367 0.583848 44.6421C0.596915 44.6593 0.611406 44.6757 0.625767 44.692C0.630813 44.6977 0.635212 44.7037 0.640387 44.7092C0.660571 44.7307 0.681789 44.7516 0.704172 44.7713L9.76045 52.7495C9.78284 52.7692 9.80638 52.788 9.83097 52.8058C9.83731 52.8103 9.84416 52.8142 9.8505 52.8187C9.869 52.8314 9.88764 52.8441 9.90717 52.8556C9.91325 52.8592 9.91972 52.8622 9.92593 52.8656C9.9465 52.8771 9.96721 52.8885 9.98881 52.8988C9.99347 52.9011 9.99852 52.9028 10.0033 52.9049C10.0267 52.9155 10.0504 52.9258 10.0747 52.9347C10.0782 52.9359 10.0818 52.9369 10.0852 52.938C10.1109 52.9471 10.1371 52.9557 10.1639 52.9628C10.1677 52.9639 10.1718 52.9646 10.1756 52.9655C10.2019 52.9723 10.2286 52.9785 10.2557 52.9832C10.2639 52.9847 10.2723 52.9853 10.2804 52.9865C10.3035 52.9901 10.3264 52.9936 10.3499 52.9957C10.382 52.9985 10.4143 53 10.4468 53H40.9643C41.2217 53 41.4685 52.9099 41.6505 52.7496C41.8324 52.5893 41.9347 52.3719 41.9347 52.1452V35.6878C41.9347 35.5756 41.9096 35.4644 41.8608 35.3607C41.8121 35.257 41.7406 35.1627 41.6505 35.0834C41.5604 35.004 41.4535 34.941 41.3358 34.898C41.218 34.8551 41.0919 34.833 40.9644 34.833ZM9.47659 50.0815L3.73285 45.0215H9.47659V50.0815Z" fill="#8761ED"/>
<path d="M34.4951 46.1613C34.7524 46.1613 34.9993 46.0713 35.1812 45.9109C35.3632 45.7506 35.4654 45.5332 35.4654 45.3065C35.4654 45.0798 35.3632 44.8623 35.1812 44.702C34.9993 44.5417 34.7524 44.4516 34.4951 44.4516H26.1628C25.9055 44.4516 25.6586 44.5417 25.4767 44.702C25.2947 44.8623 25.1925 45.0798 25.1925 45.3065C25.1925 45.5332 25.2947 45.7506 25.4767 45.9109C25.6586 46.0713 25.9055 46.1613 26.1628 46.1613H34.4951ZM34.4951 7.97852H7.85903C7.60167 7.97852 7.35486 8.06858 7.17288 8.22889C6.99091 8.38921 6.88867 8.60664 6.88867 8.83335C6.88867 9.06007 6.99091 9.2775 7.17288 9.43782C7.35486 9.59813 7.60167 9.68819 7.85903 9.68819H34.4951C34.7524 9.68819 34.9993 9.59813 35.1812 9.43782C35.3632 9.2775 35.4654 9.06007 35.4654 8.83335C35.4654 8.60664 35.3632 8.38921 35.1812 8.22889C34.9993 8.06858 34.7524 7.97852 34.4951 7.97852ZM34.4951 12.5377H7.85903C7.60167 12.5377 7.35486 12.6277 7.17288 12.788C6.99091 12.9483 6.88867 13.1658 6.88867 13.3925C6.88867 13.6192 6.99091 13.8366 7.17288 13.997C7.35486 14.1573 7.60167 14.2473 7.85903 14.2473H34.4951C34.7524 14.2473 34.9993 14.1573 35.1812 13.997C35.3632 13.8366 35.4654 13.6192 35.4654 13.3925C35.4654 13.1658 35.3632 12.9483 35.1812 12.788C34.9993 12.6277 34.7524 12.5377 34.4951 12.5377ZM34.4951 17.0968H7.85903C7.60167 17.0968 7.35486 17.1869 7.17288 17.3472C6.99091 17.5075 6.88867 17.7249 6.88867 17.9516C6.88867 18.1784 6.99091 18.3958 7.17288 18.5561C7.35486 18.7164 7.60167 18.8065 7.85903 18.8065H34.4951C34.7524 18.8065 34.9993 18.7164 35.1812 18.5561C35.3632 18.3958 35.4654 18.1784 35.4654 17.9516C35.4654 17.7249 35.3632 17.5075 35.1812 17.3472C34.9993 17.1869 34.7524 17.0968 34.4951 17.0968ZM35.4654 22.5108C35.4654 22.2841 35.3632 22.0666 35.1812 21.9063C34.9993 21.746 34.7524 21.6559 34.4951 21.6559H7.85903C7.60167 21.6559 7.35486 21.746 7.17288 21.9063C6.99091 22.0666 6.88867 22.2841 6.88867 22.5108C6.88867 22.7375 6.99091 22.9549 7.17288 23.1152C7.35486 23.2756 7.60167 23.3656 7.85903 23.3656H34.4951C34.7524 23.3656 34.9993 23.2756 35.1812 23.1152C35.3632 22.9549 35.4654 22.7375 35.4654 22.5108ZM30.8581 27.0699C30.8581 26.8432 30.7558 26.6258 30.5738 26.4655C30.3919 26.3051 30.1451 26.2151 29.8877 26.2151H7.85903C7.60167 26.2151 7.35486 26.3051 7.17288 26.4655C6.99091 26.6258 6.88867 26.8432 6.88867 27.0699C6.88867 27.2966 6.99091 27.5141 7.17288 27.6744C7.35486 27.8347 7.60167 27.9248 7.85903 27.9248H29.8878C30.1452 27.9247 30.3919 27.8346 30.5739 27.6743C30.7558 27.514 30.8581 27.2966 30.8581 27.0699ZM7.85903 30.7742C7.60167 30.7742 7.35486 30.8643 7.17288 31.0246C6.99091 31.1849 6.88867 31.4023 6.88867 31.6291C6.88867 31.8558 6.99091 32.0732 7.17288 32.2335C7.35486 32.3938 7.60167 32.4839 7.85903 32.4839H21.1771C21.4345 32.4839 21.6813 32.3938 21.8633 32.2335C22.0452 32.0732 22.1475 31.8558 22.1475 31.6291C22.1475 31.4023 22.0452 31.1849 21.8633 31.0246C21.6813 30.8643 21.4345 30.7742 21.1771 30.7742H7.85903ZM59.2759 10.3682C58.4339 9.62642 57.3131 9.2178 56.1197 9.2178C54.9263 9.2178 53.8055 9.6263 52.9634 10.3681L49.9445 13.0278H49.9442L47.1999 15.4454L47.1996 15.4455L27.5838 32.7264C27.557 32.7502 27.5319 32.7754 27.5085 32.8018C27.5026 32.8085 27.4971 32.8156 27.4913 32.8224C27.4739 32.843 27.4576 32.8642 27.4424 32.886C27.4397 32.8899 27.4364 32.8933 27.4339 32.8972L21.7191 41.4476C21.4774 41.7029 21.3455 42.0251 21.3466 42.3575C21.3466 42.7381 21.5148 43.0959 21.8203 43.365C22.1257 43.6341 22.5319 43.7822 22.9639 43.7822C23.3455 43.7822 23.707 43.6666 23.9967 43.4541L33.7026 38.4197C33.7072 38.4173 33.711 38.4144 33.7156 38.412C33.7401 38.3988 33.7639 38.3844 33.7874 38.3692C33.7953 38.364 33.8033 38.3591 33.811 38.3538C33.8405 38.3333 33.8693 38.3115 33.8964 38.2875L53.5121 21.0068L53.5123 21.0067L53.5124 21.0066L56.2568 18.5889H56.2571L59.2761 15.9293C61.0164 14.3961 61.0164 11.9013 59.2759 10.3682ZM52.8262 19.1933L49.2582 16.05L50.6306 14.8412L54.1986 17.9843L52.8262 19.1933ZM33.2102 36.4741L29.6423 33.3309L47.886 17.259L51.454 20.4022L33.2102 36.4741ZM27.607 39.5974L26.097 38.2672L28.4702 34.7163L31.6377 37.5067L27.607 39.5974ZM23.9349 41.5021L25.0799 39.7889L25.8796 40.4934L23.9349 41.5021ZM57.9037 14.7202L55.5709 16.7754L52.0028 13.6322L54.3358 11.5769C54.8113 11.1581 55.4448 10.9274 56.1198 10.9274C56.7948 10.9274 57.4282 11.1581 57.9039 11.5769C58.3793 11.9958 58.6412 12.554 58.6412 13.1486C58.6412 13.7432 58.3792 14.3015 57.9037 14.7202Z" fill="#8761ED"/>
</svg>
