<svg width="42" height="48" viewBox="0 0 42 48" fill="none" xmlns="http://www.w3.org/2000/svg">
<path d="M34.9583 24.8325C34.375 24.4991 33.7708 24.2283 33.1666 23.9991C33.7708 23.77 34.375 23.4991 34.9583 23.1658C38.9583 20.8533 41.1875 16.6658 41.2083 12.3533C39.3125 11.27 37.1458 10.6866 34.9375 10.6866C32.8125 10.6866 30.6666 11.2283 28.7083 12.3533C28.125 12.6866 27.5833 13.0825 27.0833 13.4783C27.1875 12.8325 27.25 12.1658 27.25 11.4991C27.25 6.87415 24.7291 2.85331 21 0.686646C17.2708 2.85331 14.75 6.87415 14.75 11.4991C14.75 12.1658 14.8125 12.8325 14.9166 13.4783C14.4166 13.0616 13.875 12.6658 13.2916 12.3325C11.3333 11.2075 9.18746 10.6658 7.06246 10.6658C4.87496 10.6658 2.68746 11.2491 0.791626 12.3325C0.791626 16.645 3.02079 20.8325 7.04163 23.145C7.62496 23.4783 8.22913 23.7491 8.83329 23.9783C8.22913 24.2075 7.62496 24.4783 7.04163 24.8116C3.04163 27.1241 0.812459 31.3116 0.791626 35.6241C2.68746 36.7075 4.85413 37.2908 7.06246 37.2908C9.18746 37.2908 11.3333 36.7491 13.2916 35.6241C13.875 35.2908 14.4166 34.895 14.9166 34.4991C14.8125 35.1658 14.75 35.8325 14.75 36.4991C14.75 41.1241 17.2708 45.145 21 47.3117C24.7291 45.145 27.25 41.1241 27.25 36.4991C27.25 35.8325 27.1875 35.1658 27.0833 34.52C27.5833 34.9366 28.125 35.3116 28.7083 35.645C30.6666 36.77 32.8125 37.3116 34.9375 37.3116C37.125 37.3116 39.3125 36.7283 41.2083 35.645C41.1875 31.3325 38.9583 27.145 34.9583 24.8325ZM29.6666 16.7491C30.1041 16.395 30.4583 16.145 30.7916 15.9783C32.0625 15.2491 33.5 14.8533 34.9583 14.8533C35.5208 14.8533 36.0625 14.9158 36.6041 15.02C35.9583 16.9158 34.6458 18.5408 32.8958 19.5616C32.5416 19.77 32.1458 19.9366 31.6875 20.1241L28.8125 21.2075C28.4583 20.2491 27.9583 19.395 27.3125 18.6241L29.6666 16.7491ZM21 6.01998C22.3125 7.51998 23.0833 9.47831 23.0833 11.4991C23.0833 11.895 23.0416 12.3533 22.9791 12.8116L22.5 15.8116C22 15.7283 21.5 15.6658 21 15.6658C20.5 15.6658 20 15.7283 19.5208 15.8116L19.0416 12.8116C18.9583 12.3533 18.9166 11.895 18.9166 11.4991C18.9166 9.45748 19.6875 7.51998 21 6.01998ZM5.39579 14.9991C5.93746 14.8741 6.49996 14.8325 7.06246 14.8325C8.49996 14.8325 9.93746 15.2075 11.2083 15.9575C11.5208 16.145 11.875 16.3741 12.2291 16.6866L14.625 18.6866C14 19.4366 13.5208 20.27 13.1666 21.1866L10.2916 20.1033C9.85413 19.9158 9.45829 19.7283 9.12496 19.5408C7.31246 18.4991 6.02079 16.895 5.39579 14.9991ZM12.3333 31.2283C11.8958 31.5825 11.5416 31.8325 11.2083 31.9991C9.93746 32.7283 8.49996 33.1241 7.04163 33.1241C6.47913 33.1241 5.93746 33.0616 5.39579 32.9575C6.04163 31.0616 7.35413 29.4366 9.10413 28.4158C9.45829 28.2075 9.85413 28.0408 10.3125 27.8533L13.1875 26.77C13.5208 27.7283 14.0416 28.6033 14.6875 29.3533L12.3333 31.2283ZM21 41.9783C19.6875 40.4783 18.9166 38.52 18.9166 36.4991C18.9166 36.0825 18.9583 35.645 19.0416 35.145L19.5 32.1866C19.9791 32.27 20.4791 32.3325 21 32.3325C21.5 32.3325 22 32.27 22.4791 32.1866L22.9583 35.1866C23.0416 35.645 23.0833 36.1033 23.0833 36.4991C23.0833 38.5408 22.3125 40.4783 21 41.9783ZM34.9375 33.145C33.5 33.145 32.0625 32.77 30.7916 32.02C30.4166 31.8116 30.0833 31.5616 29.7708 31.3116L27.375 29.3116C28 28.5616 28.5 27.7283 28.8333 26.7908L31.7083 27.8741C32.1666 28.0408 32.5625 28.2283 32.8958 28.4158C34.6666 29.4366 35.9583 31.0616 36.6041 32.9575C36.0416 33.1033 35.4791 33.145 34.9375 33.145Z" fill="#FF69B4"/>
</svg>
