<svg width="44" height="43" viewBox="0 0 44 43" fill="none" xmlns="http://www.w3.org/2000/svg">
<path d="M31.332 2.7312C32.8112 1.02287 34.6862 0.168701 36.957 0.168701C38.8529 0.168701 40.4362 0.856201 41.7487 2.25203C43.0612 3.64787 43.7487 5.2312 43.832 7.0437C43.832 8.50204 43.1445 10.1895 41.7487 12.1687C40.3529 14.1479 38.9987 15.7937 37.6445 17.1479C36.2904 18.4812 34.1862 20.4604 31.332 23.0854C28.4362 20.4604 26.3112 18.4812 24.957 17.1479C23.6029 15.8145 22.2279 14.1479 20.8529 12.1687C19.4779 10.1895 18.832 8.50204 18.832 7.0437C18.832 5.14787 19.4987 3.56453 20.8529 2.25203C22.207 0.939535 23.832 0.252035 25.7279 0.168701C27.957 0.168701 29.8112 1.02287 31.332 2.7312ZM43.832 35.5854V37.6687L27.1654 42.877L12.582 38.8354V41.8354H0.0820312V18.9187H16.6862L29.5195 23.7104C30.6631 24.1417 31.6483 24.9109 32.3442 25.9157C33.04 26.9204 33.4137 28.1132 33.4154 29.3354H37.582C41.0404 29.3354 43.832 32.127 43.832 35.5854ZM8.41536 37.6687V23.0854H4.2487V37.6687H8.41536ZM39.457 34.6895C39.1237 34.002 38.3945 33.502 37.582 33.502H26.4362C25.3112 33.502 24.207 33.3354 23.1445 32.9812L18.1862 31.3354L19.4987 27.377L24.457 29.0229C25.082 29.2312 29.2487 29.3354 29.2487 29.3354C29.2487 28.5645 28.7695 27.877 28.0612 27.6062L15.9362 23.0854H12.582V34.5437L27.1029 38.5229L39.457 34.6895Z" fill="#00C853"/>
</svg>
