<svg width="37" height="38" viewBox="0 0 37 38" fill="none" xmlns="http://www.w3.org/2000/svg">
<path fill-rule="evenodd" clip-rule="evenodd" d="M24.3791 21.0275C24.2817 20.6838 24.1453 20.3524 23.9725 20.0397C23.7895 19.7318 23.5584 19.4551 23.288 19.2202C23.0356 18.9885 22.7688 18.773 22.4891 18.5751C22.1777 18.3686 21.8517 18.1848 21.5138 18.0252C21.1005 17.8233 20.7733 17.6727 20.5323 17.5734C20.2913 17.474 19.9429 17.3385 19.4869 17.1667C19.0821 17.012 18.7804 16.8936 18.5818 16.8115C18.3847 16.7298 18.1237 16.6135 17.8011 16.4626C17.5491 16.3516 17.3077 16.2178 17.0801 16.0626C16.9019 15.9309 16.7316 15.7887 16.5701 15.6368C16.4035 15.4895 16.273 15.306 16.1885 15.1003C16.1138 14.9024 16.0766 14.6923 16.0789 14.4807C16.0789 13.8953 16.3373 13.4173 16.8542 13.0469C17.3711 12.6765 18.0381 12.4916 18.8553 12.4922C19.2286 12.4937 19.6003 12.5436 19.9608 12.6407C20.2906 12.724 20.6124 12.8366 20.9221 12.9772C21.1831 13.0983 21.4358 13.2364 21.6787 13.3906C21.9152 13.5406 22.0834 13.6554 22.1825 13.7323C22.2815 13.8093 22.344 13.8621 22.3694 13.8876C22.417 13.9279 22.473 13.957 22.5333 13.9727C22.5937 13.9883 22.6568 13.9901 22.7179 13.978C22.7815 13.9737 22.8428 13.9522 22.8951 13.9158C22.9474 13.8794 22.9889 13.8294 23.015 13.7713L24.0614 11.8861C24.1643 11.7137 24.1426 11.5501 23.9965 11.3953C23.9446 11.3434 23.8805 11.283 23.8042 11.2141C23.728 11.1452 23.5601 11.0204 23.3005 10.8397C23.0398 10.6579 22.7659 10.4959 22.481 10.3552C22.1172 10.1842 21.7416 10.0396 21.3571 9.92255C20.8928 9.77516 20.4146 9.67562 19.93 9.6255V7.35241C19.9322 7.29754 19.923 7.24282 19.903 7.19169C19.883 7.14056 19.8526 7.09412 19.8138 7.05529C19.7749 7.01646 19.7285 6.98609 19.6774 6.96608C19.6262 6.94608 19.5715 6.93687 19.5167 6.93903H17.767C17.6579 6.94076 17.5538 6.98487 17.4766 7.06202C17.3995 7.13917 17.3554 7.24331 17.3536 7.35241V9.67645C16.0023 9.93505 14.9046 10.5119 14.0606 11.4069C13.2165 12.3019 12.7946 13.3433 12.795 14.5312C12.7938 14.87 12.8307 15.2077 12.905 15.5382C12.9704 15.8319 13.0613 16.1193 13.1766 16.3972C13.2936 16.6671 13.4478 16.9194 13.6347 17.1465C13.8108 17.3671 13.9984 17.5782 14.1966 17.7791C14.4087 17.9839 14.6402 18.1676 14.8878 18.3276C15.1717 18.5173 15.4148 18.6703 15.617 18.7866C15.8192 18.9029 16.0882 19.0364 16.424 19.187C16.7602 19.337 17.0249 19.4509 17.2181 19.5287C17.4113 19.6066 17.6763 19.7143 18.0131 19.8518C18.4774 20.0328 18.8219 20.1725 19.0466 20.2709C19.2712 20.3693 19.5553 20.5071 19.8988 20.6843C20.243 20.8612 20.4947 21.0227 20.6539 21.1688C20.8235 21.3279 20.9692 21.5107 21.0865 21.7115C21.2127 21.9175 21.2792 22.1544 21.2788 22.3959C21.2788 23.0756 21.0139 23.6005 20.4842 23.9706C19.9546 24.3407 19.3412 24.526 18.6442 24.5263C18.3229 24.5265 18.0025 24.4916 17.6887 24.4225C16.5697 24.1981 15.5237 23.6603 14.5509 22.8088L14.5244 22.7829C14.4883 22.7377 14.4407 22.7031 14.3865 22.6828C14.3323 22.6625 14.2737 22.6572 14.2168 22.6675C14.0793 22.6853 13.9803 22.7363 13.9197 22.8233L12.5873 24.5662C12.5308 24.6356 12.499 24.7218 12.4969 24.8113C12.5015 24.9167 12.5428 25.0172 12.6138 25.0954C12.6851 25.1768 12.7605 25.2546 12.8397 25.3285C13.0315 25.5002 13.2321 25.6619 13.4405 25.813C14.1258 26.3316 14.8912 26.7349 15.7064 27.007C16.2399 27.1978 16.7921 27.332 17.3536 27.4074V29.6666C17.3545 29.7759 17.3984 29.8806 17.4757 29.9579C17.553 30.0352 17.6577 30.0791 17.767 30.0799H19.5099C19.5648 30.0823 19.6196 30.0731 19.6708 30.0532C19.7219 30.0332 19.7684 30.0028 19.8072 29.964C19.846 29.9251 19.8764 29.8786 19.8963 29.8274C19.9162 29.7762 19.9252 29.7214 19.9228 29.6666V27.4074C21.2924 27.1831 22.4055 26.5954 23.262 25.6443C24.1186 24.6932 24.5467 23.5592 24.5464 22.2421C24.549 21.8312 24.492 21.4221 24.3772 21.0275" fill="#00BD76"/>
<path d="M18.5237 37.0396C14.2488 37.0371 10.1061 35.557 6.79756 32.85C3.48898 30.1429 1.2179 26.3754 0.36907 22.1856C-0.479761 17.9958 0.145847 13.6414 2.13991 9.86001C4.13397 6.07866 7.37388 3.10288 11.3108 1.43679C15.8352 -0.456652 20.9257 -0.479515 25.467 1.37321C30.0083 3.22593 33.6301 6.80317 35.5389 11.3212C37.4476 15.8392 37.4877 20.9296 35.6504 25.4772C33.8131 30.0247 30.2482 33.6586 25.7366 35.5827C23.4548 36.5487 21.0016 37.0442 18.5237 37.0396ZM18.5237 2.8639C9.89567 2.8639 2.87788 9.88169 2.87788 18.5097C2.87788 27.1378 9.89567 34.1555 18.5237 34.1555C27.1517 34.1555 34.1695 27.1378 34.1695 18.5097C34.1695 9.88169 27.1517 2.8639 18.5237 2.8639Z" fill="#00BD76"/>
</svg>
