<svg width="107" height="108" viewBox="0 0 107 108" fill="none" xmlns="http://www.w3.org/2000/svg">
<path d="M53.4998 0.666748C24.0598 0.666748 0.166504 24.5601 0.166504 54.0001C0.166504 83.4401 24.0598 107.333 53.4998 107.333C82.9398 107.333 106.833 83.4401 106.833 54.0001C106.833 24.5601 82.9398 0.666748 53.4998 0.666748ZM53.4998 96.6667C29.9798 96.6667 10.8332 77.5201 10.8332 54.0001C10.8332 30.4801 29.9798 11.3334 53.4998 11.3334C77.0198 11.3334 96.1665 30.4801 96.1665 54.0001C96.1665 77.5201 77.0198 96.6667 53.4998 96.6667ZM77.9798 30.4267L42.8332 65.5734L29.0198 51.8134L21.4998 59.3334L42.8332 80.6667L85.4998 38.0001L77.9798 30.4267Z" fill="#FF0000"/>
</svg>
