<svg width="18" height="18" viewBox="0 0 18 18" fill="none" xmlns="http://www.w3.org/2000/svg">
<path d="M15.7091 0.000488281H2.29091C1.68332 0.000488281 1.10062 0.241851 0.670992 0.67148C0.241363 1.10111 0 1.68381 0 2.2914V15.7096C0 16.3172 0.241363 16.8999 0.670992 17.3295C1.10062 17.7591 1.68332 18.0005 2.29091 18.0005H8.86377V10.511H7.36589V7.51524H8.85138V6.1614C8.85138 4.93609 9.43507 3.02179 12.0038 3.02179L14.3178 3.03107V5.59775H12.6373C12.3641 5.59775 11.9753 5.73382 11.9753 6.31742V7.51545H14.356L14.0827 10.5112H11.8595V18.0005H15.7091C16.3167 18.0005 16.8994 17.7591 17.329 17.3295C17.7586 16.8999 18 16.3172 18 15.7096V2.2914C18 1.68381 17.7586 1.10111 17.329 0.67148C16.8994 0.241851 16.3167 0.000488281 15.7091 0.000488281Z" fill="white"/>
</svg>
