<svg width="38" height="38" viewBox="0 0 38 38" fill="none" xmlns="http://www.w3.org/2000/svg">
<path d="M16.9167 10.6667V21.0833L25.7708 26.3333L27.375 23.6667L20.0417 19.3125V10.6667H16.9167ZM37.75 14.8333V0.25L32.25 5.75C28.875 2.35417 24.1875 0.25 19 0.25C8.64583 0.25 0.25 8.64583 0.25 19C0.25 29.3542 8.64583 37.75 19 37.75C29.3542 37.75 37.75 29.3542 37.75 19H33.5833C33.5833 27.0417 27.0417 33.5833 19 33.5833C10.9583 33.5833 4.41667 27.0417 4.41667 19C4.41667 10.9583 10.9583 4.41667 19 4.41667C23.0208 4.41667 26.6667 6.0625 29.3125 8.6875L23.1667 14.8333H37.75Z" fill="#F7A226"/>
</svg>
