<svg width="18" height="18" viewBox="0 0 18 18" fill="none" xmlns="http://www.w3.org/2000/svg">
<path d="M13.2188 3.19971H4.78125C3.90892 3.19971 3.19922 3.90944 3.19922 4.78174V13.2192C3.19922 14.0916 3.90895 14.8013 4.78125 14.8013H13.2188C14.0911 14.8013 14.8008 14.0915 14.8008 13.2192V4.78174C14.8008 3.90941 14.091 3.19971 13.2188 3.19971ZM9 12.6919C6.9648 12.6919 5.30859 11.0357 5.30859 9.00049C5.30859 6.96529 6.9648 5.30908 9 5.30908C11.0352 5.30908 12.6914 6.96529 12.6914 9.00049C12.6914 11.0357 11.0352 12.6919 9 12.6919ZM12.6914 6.36377C12.1099 6.36377 11.6367 5.89057 11.6367 5.30908C11.6367 4.7276 12.1099 4.25439 12.6914 4.25439C13.2729 4.25439 13.7461 4.7276 13.7461 5.30908C13.7461 5.89057 13.2729 6.36377 12.6914 6.36377Z" fill="white"/>
<path d="M9 6.36377C7.54622 6.36377 6.36328 7.54671 6.36328 9.00049C6.36328 10.4543 7.54622 11.6372 9 11.6372C10.4538 11.6372 11.6367 10.4543 11.6367 9.00049C11.6367 7.54671 10.4538 6.36377 9 6.36377Z" fill="white"/>
<path d="M15.3281 0.000488281H2.67188C1.21809 0.000488281 0 1.21858 0 2.67236V15.3286C0 16.7824 1.21809 18.0005 2.67188 18.0005H15.3281C16.7819 18.0005 18 16.7824 18 15.3286V2.67236C18 1.21858 16.7819 0.000488281 15.3281 0.000488281ZM15.8555 13.2192C15.8555 14.673 14.6725 15.856 13.2188 15.856H4.78125C3.32747 15.856 2.14453 14.673 2.14453 13.2192V4.78174C2.14453 3.32796 3.32747 2.14502 4.78125 2.14502H13.2188C14.6725 2.14502 15.8555 3.32796 15.8555 4.78174V13.2192Z" fill="white"/>
</svg>
