<svg width="51" height="50" viewBox="0 0 51 50" fill="none" xmlns="http://www.w3.org/2000/svg">
<path d="M25.5 50C11.7159 50 0.5 38.7841 0.5 25C0.5 11.2159 11.7159 0 25.5 0C39.2841 0 50.5 11.2159 50.5 25C50.5 38.7841 39.2841 50 25.5 50ZM25.5 4.54545C14.2273 4.54545 5.04545 13.7159 5.04545 25C5.04545 36.2841 14.2273 45.4545 25.5 45.4545C36.7727 45.4545 45.9545 36.2727 45.9545 25C45.9545 13.7273 36.7727 4.54545 25.5 4.54545Z" fill="#8761ED"/>
<path d="M19.0682 20.8408C18.4887 20.8408 17.9091 20.6135 17.4659 20.1704L7.82957 10.534C6.9432 9.64764 6.9432 8.20446 7.82957 7.31809C8.71593 6.43173 10.1591 6.43173 11.0455 7.31809L20.6818 16.9545C21.5682 17.8408 21.5682 19.284 20.6818 20.1704C20.2387 20.6135 19.6591 20.8408 19.0796 20.8408H19.0682Z" fill="#8761ED"/>
<path d="M31.9318 20.8408C31.3523 20.8408 30.7727 20.6135 30.3296 20.1704C29.4432 19.284 29.4432 17.8408 30.3296 16.9545L39.9659 7.31809C40.8523 6.43173 42.2955 6.43173 43.1818 7.31809C44.0682 8.20446 44.0682 9.64764 43.1818 10.534L33.5455 20.1704C33.1023 20.6135 32.5227 20.8408 31.9432 20.8408H31.9318Z" fill="#8761ED"/>
<path d="M41.5682 43.3408C40.9887 43.3408 40.4091 43.1135 39.9659 42.6704L30.3296 33.034C29.4432 32.1476 29.4432 30.7045 30.3296 29.8181C31.2159 28.9317 32.6591 28.9317 33.5455 29.8181L43.1818 39.4545C44.0682 40.3408 44.0682 41.784 43.1818 42.6704C42.7387 43.1135 42.1591 43.3408 41.5796 43.3408H41.5682Z" fill="#8761ED"/>
<path d="M9.43184 43.3408C8.8523 43.3408 8.27275 43.1135 7.82957 42.6704C6.9432 41.784 6.9432 40.3408 7.82957 39.4545L17.4659 29.8181C18.3523 28.9317 19.7955 28.9317 20.6818 29.8181C21.5682 30.7045 21.5682 32.1476 20.6818 33.034L11.0455 42.6704C10.6023 43.1135 10.0227 43.3408 9.4432 43.3408H9.43184Z" fill="#8761ED"/>
<path d="M25.5 36.3637C19.2386 36.3637 14.1364 31.2615 14.1364 25.0001C14.1364 18.7387 19.2386 13.6365 25.5 13.6365C31.7614 13.6365 36.8636 18.7387 36.8636 25.0001C36.8636 31.2615 31.7614 36.3637 25.5 36.3637ZM25.5 18.1819C21.7386 18.1819 18.6818 21.2387 18.6818 25.0001C18.6818 28.7615 21.7386 31.8183 25.5 31.8183C29.2614 31.8183 32.3182 28.7615 32.3182 25.0001C32.3182 21.2387 29.2614 18.1819 25.5 18.1819Z" fill="#8761ED"/>
</svg>
