<svg width="18" height="18" viewBox="0 0 18 18" fill="none" xmlns="http://www.w3.org/2000/svg">
<path d="M16 0.000488281C16.5304 0.000488281 17.0391 0.211202 17.4142 0.586275C17.7893 0.961347 18 1.47006 18 2.00049V16.0005C18 16.5309 17.7893 17.0396 17.4142 17.4147C17.0391 17.7898 16.5304 18.0005 16 18.0005H2C1.46957 18.0005 0.960859 17.7898 0.585786 17.4147C0.210714 17.0396 0 16.5309 0 16.0005V2.00049C0 1.47006 0.210714 0.961347 0.585786 0.586275C0.960859 0.211202 1.46957 0.000488281 2 0.000488281H16ZM15.5 15.5005V10.2005C15.5 9.33588 15.1565 8.50669 14.5452 7.89532C13.9338 7.28395 13.1046 6.94049 12.24 6.94049C11.39 6.94049 10.4 7.46049 9.92 8.24049V7.13049H7.13V15.5005H9.92V10.5705C9.92 9.80049 10.54 9.17049 11.31 9.17049C11.6813 9.17049 12.0374 9.31799 12.2999 9.58054C12.5625 9.84309 12.71 10.1992 12.71 10.5705V15.5005H15.5ZM3.88 5.56049C4.32556 5.56049 4.75288 5.38349 5.06794 5.06843C5.383 4.75337 5.56 4.32605 5.56 3.88049C5.56 2.95049 4.81 2.19049 3.88 2.19049C3.43178 2.19049 3.00193 2.36854 2.68499 2.68548C2.36805 3.00241 2.19 3.43227 2.19 3.88049C2.19 4.81049 2.95 5.56049 3.88 5.56049ZM5.27 15.5005V7.13049H2.5V15.5005H5.27Z" fill="white"/>
</svg>
