<svg width="16" height="20" viewBox="0 0 16 20" fill="none" xmlns="http://www.w3.org/2000/svg">
<path opacity="0.3" d="M8 2.00049C4.65 2.00049 2 4.57049 2 8.20049C2 10.5405 3.95 13.6405 8 17.3405C12.05 13.6405 14 10.5505 14 8.20049C14 4.57049 11.35 2.00049 8 2.00049ZM8 10.0005C6.9 10.0005 6 9.10049 6 8.00049C6 6.90049 6.9 6.00049 8 6.00049C9.1 6.00049 10 6.90049 10 8.00049C10 9.10049 9.1 10.0005 8 10.0005Z" fill="#8761ED"/>
<path d="M8 6.00049C6.9 6.00049 6 6.90049 6 8.00049C6 9.10049 6.9 10.0005 8 10.0005C9.1 10.0005 10 9.10049 10 8.00049C10 6.90049 9.1 6.00049 8 6.00049ZM8 0.000488281C3.8 0.000488281 0 3.22049 0 8.20049C0 11.5205 2.67 15.4505 8 20.0005C13.33 15.4505 16 11.5205 16 8.20049C16 3.22049 12.2 0.000488281 8 0.000488281ZM8 17.3305C3.95 13.6305 2 10.5405 2 8.19049C2 4.57049 4.65 2.00049 8 2.00049C11.35 2.00049 14 4.57049 14 8.20049C14 10.5405 12.05 13.6405 8 17.3305Z" fill="#8761ED"/>
</svg>
