<svg width="177" height="49" viewBox="0 0 177 49" fill="none" xmlns="http://www.w3.org/2000/svg">
<g clip-path="url(#clip0_2554_8602)">
<path d="M126.581 33.9024H123.727L116.905 27.6371V33.9024H114.808V15.3196H116.905V25.7662L123.379 20.1579H126.486L118.519 26.6886L126.581 33.9024ZM56.4924 16.2725H62.8882V33.9024H64.8114V16.2725H71.2072V14.6061H56.488V16.2725H56.4924ZM80.8576 20.1231C78.5429 20.1231 76.7503 21.0324 75.7365 22.6205V14.6104H73.8917V33.9068H75.7365V26.7278C75.7365 23.6081 77.5813 21.7851 80.5226 21.7851C83.1244 21.7851 84.6298 23.2688 84.6298 26.1534V33.9024H86.4746V25.9707C86.4746 22.0462 84.186 20.1187 80.8576 20.1187V20.1231ZM91.4956 33.9068H93.3404V20.2275H91.4956V33.9068ZM105.462 20.1231C103.095 20.1231 101.25 21.0846 100.263 22.751V20.2275H98.4962V33.9068H100.341V26.7278C100.341 23.6081 102.186 21.7851 105.127 21.7851C107.729 21.7851 109.234 23.2688 109.234 26.1534V33.9024H111.079V25.9707C111.079 22.0462 108.791 20.1187 105.462 20.1187V20.1231ZM91.4956 18.1086H93.3404V15.4719H91.4956V18.1086Z" fill="white"/>
<path d="M134.561 15.6981H136.484V32.236H146.678V33.9024H134.561V15.6981Z" fill="white"/>
<path d="M158.591 18.6132V20.2274H162.803V21.7894H158.643V33.9067H156.799V21.7894H154.353V20.2274H156.799V18.5349C156.799 16.0897 158.256 14.4799 160.932 14.4799C161.946 14.4799 162.986 14.767 163.664 15.337L163.042 16.7162C162.52 16.2724 161.793 16.0418 161.015 16.0418C159.427 16.0418 158.596 16.9251 158.596 18.6176L158.591 18.6132Z" fill="white"/>
<path d="M176.978 27.6371H165.535C165.744 30.4957 167.928 32.397 170.917 32.397C172.584 32.397 174.063 31.8009 175.103 30.6044L176.143 31.8009C174.92 33.2585 173.023 34.0373 170.865 34.0373C166.601 34.0373 163.686 31.1265 163.686 27.0671C163.686 23.0077 166.519 20.123 170.369 20.123C174.22 20.123 177 22.9555 177 27.0671C177 27.2238 176.974 27.4326 176.974 27.6414L176.978 27.6371ZM165.535 26.2579H175.234C174.999 23.5777 173.049 21.7068 170.369 21.7068C167.689 21.7068 165.766 23.5777 165.531 26.2579H165.535Z" fill="white"/>
<path d="M151.438 20.2231H149.594V33.9025H151.438V20.2231Z" fill="white"/>
<path d="M151.438 15.4675H149.594V18.1042H151.438V15.4675Z" fill="white"/>
<path d="M23.3732 1.52282H17.5212V0H30.9829V1.52282H25.1309V22.1288H23.3688V1.52282H23.3732ZM7.55756 8.80192L3.41983 12.9397L2.34515 11.865L11.865 2.34515L12.9397 3.41983L8.80192 7.55756L23.3732 22.1288L22.1288 23.3732L7.55756 8.80192ZM1.52282 25.1353V30.9873H0V17.5255H1.52282V23.3775H22.1288V25.1397H1.52282V25.1353ZM8.80192 40.9509L12.9397 45.0886L11.865 46.1633L2.34515 36.6479L3.41983 35.5732L7.55756 39.7109L22.1288 25.1353L23.3732 26.3797L8.80192 40.9509ZM25.1353 46.9856H30.9873V48.5085H17.5255V46.9856H23.3775V26.3797H25.1396V46.9856H25.1353ZM40.9509 39.7066L45.0886 35.5688L46.1633 36.6435L36.6435 46.1633L35.5688 45.0886L39.7066 40.9509L25.1353 26.3797L26.3797 25.1353L40.9509 39.7066ZM46.9856 23.3732V17.5212H48.5085V30.9829H46.9856V25.1309H26.3797V23.3688H46.9856V23.3732ZM39.7066 7.55756L35.5688 3.41983L36.6435 2.34515L46.1633 11.865L45.0886 12.9397L40.9509 8.80192L26.3797 23.3732L25.1353 22.1288L39.7066 7.55756Z" fill="white"/>
</g>
<defs>
<clipPath id="clip0_2554_8602">
<rect width="177" height="48.5128" fill="white"/>
</clipPath>
</defs>
</svg>
