<svg width="120" height="34" viewBox="0 0 120 34" fill="none" xmlns="http://www.w3.org/2000/svg">
<path d="M85.8179 23.5395H83.8829L79.2576 19.2919V23.5395H77.8358V10.941H79.2576V18.0235L83.6469 14.2212H85.7531L80.352 18.6488L85.8179 23.5395ZM38.2999 11.587H42.6361V23.5395H43.9399V11.587H48.2761V10.4573H38.297V11.587H38.2999ZM54.8187 14.1976C53.2494 14.1976 52.0341 14.8141 51.3468 15.8908V10.4602H50.0961V23.5425H51.3468V18.6754C51.3468 16.5604 52.5975 15.3244 54.5916 15.3244C56.3556 15.3244 57.3762 16.3303 57.3762 18.286V23.5395H58.6269V18.1621C58.6269 15.5014 57.0753 14.1946 54.8187 14.1946V14.1976ZM62.0309 23.5425H63.2816V14.2684H62.0309V23.5425ZM71.4997 14.1976C69.895 14.1976 68.6443 14.8495 67.9747 15.9793V14.2684H66.7771V23.5425H68.0278V18.6754C68.0278 16.5604 69.2785 15.3244 71.2726 15.3244C73.0366 15.3244 74.0572 16.3303 74.0572 18.286V23.5395H75.3079V18.1621C75.3079 15.5014 73.7563 14.1946 71.4997 14.1946V14.1976ZM62.0309 12.8318H63.2816V11.0443H62.0309V12.8318Z" fill="url(#paint0_linear_2056_17693)"/>
<path d="M91.2278 11.1978H92.5317V22.4099H99.443V23.5396H91.2278V11.1978Z" fill="#2E2F34"/>
<path d="M107.52 13.1741V14.2685H110.375V15.3275H107.555V23.5426H106.304V15.3275H104.646V14.2685H106.304V13.121C106.304 11.4632 107.292 10.3718 109.106 10.3718C109.794 10.3718 110.499 10.5665 110.959 10.9529L110.537 11.888C110.183 11.5871 109.691 11.4308 109.163 11.4308C108.086 11.4308 107.522 12.0296 107.522 13.1771L107.52 13.1741Z" fill="#2E2F34"/>
<path d="M119.985 19.292H112.227C112.369 21.23 113.85 22.5191 115.876 22.5191C117.006 22.5191 118.009 22.115 118.714 21.3038L119.419 22.115C118.59 23.1031 117.304 23.6312 115.841 23.6312C112.95 23.6312 110.974 21.6577 110.974 18.9056C110.974 16.1535 112.894 14.1978 115.505 14.1978C118.115 14.1978 120 16.1181 120 18.9056C120 19.0118 119.982 19.1534 119.982 19.295L119.985 19.292ZM112.227 18.3569H118.802C118.643 16.5399 117.322 15.2715 115.505 15.2715C113.687 15.2715 112.384 16.5399 112.224 18.3569H112.227Z" fill="#2E2F34"/>
<path d="M102.67 14.2656H101.419V23.5397H102.67V14.2656Z" fill="#2E2F34"/>
<path d="M102.67 11.0415H101.419V12.8291H102.67V11.0415Z" fill="#2E2F34"/>
<path d="M15.8462 1.58735H11.8788V0.554932H21.0054V1.58735H17.0379V15.5575H15.8433V1.58735H15.8462ZM5.12377 6.52234L2.31853 9.32758L1.58993 8.59898L8.04405 2.14486L8.77264 2.87346L5.9674 5.6787L15.8462 15.5575L15.0026 16.4012L5.12377 6.52234ZM1.03242 17.5958V21.5633H0V12.4366H1.03242V16.4041H15.0026V17.5988H1.03242V17.5958ZM5.9674 28.3183L8.77264 31.1235L8.04405 31.8521L1.58993 25.4009L2.31853 24.6723L5.12377 27.4776L15.0026 17.5958L15.8462 18.4394L5.9674 28.3183ZM17.0409 32.4096H21.0083V33.442H11.8817V32.4096H15.8492V18.4394H17.0438V32.4096H17.0409ZM27.7633 27.4746L30.5686 24.6694L31.2972 25.398L24.843 31.8521L24.1145 31.1235L26.9197 28.3183L17.0409 18.4394L17.8845 17.5958L27.7633 27.4746ZM31.8547 16.4012V12.4337H32.8871V21.5603H31.8547V17.5929H17.8845V16.3982H31.8547V16.4012ZM26.9197 5.6787L24.1145 2.87346L24.843 2.14486L31.2972 8.59898L30.5686 9.32758L27.7633 6.52234L17.8845 16.4012L17.0409 15.5575L26.9197 5.6787Z" fill="url(#paint1_linear_2056_17693)"/>
<defs>
<linearGradient id="paint0_linear_2056_17693" x1="49.6212" y1="4.30993" x2="75.2725" y2="29.9583" gradientUnits="userSpaceOnUse">
<stop stop-color="#8C66EF" stop-opacity="0.99"/>
<stop offset="1" stop-color="#5539EE"/>
</linearGradient>
<linearGradient id="paint1_linear_2056_17693" x1="0" y1="17" x2="32.89" y2="17" gradientUnits="userSpaceOnUse">
<stop stop-color="#8C66EF"/>
<stop offset="1" stop-color="#5539EE"/>
</linearGradient>
</defs>
</svg>
