<svg width="21" height="18" viewBox="0 0 21 18" fill="none" xmlns="http://www.w3.org/2000/svg">
<path d="M10.08 14.0005H2V4.00049L10 9.00049L18 4.00049V8.08049C18.71 8.18049 19.38 8.39049 20 8.68049V2.00049C20 0.900488 19.1 0.000488281 18 0.000488281H2C0.9 0.000488281 0.00999999 0.900488 0.00999999 2.00049L0 14.0005C0 15.1005 0.9 16.0005 2 16.0005H10.08C10.03 15.6705 10 15.3405 10 15.0005C10 14.6605 10.03 14.3305 10.08 14.0005ZM18 2.00049L10 7.00049L2 2.00049H18ZM15.34 18.0005L11.8 14.4605L13.21 13.0505L15.33 15.1705L19.57 10.9305L21 12.3405L15.34 18.0005Z" fill="#8761ED"/>
</svg>
