<svg width="53" height="53" viewBox="0 0 53 53" fill="none" xmlns="http://www.w3.org/2000/svg">
<path d="M40.4715 45.5494C39.9451 45.8362 39.4112 46.1323 38.8707 46.432C34.2964 48.9681 29.1119 51.8427 24.1289 51.3977L6.48245 49.8224C6.45946 49.8203 6.43638 49.8193 6.4133 49.8193H1.55573V41.0864H6.4132C6.59714 41.0864 6.77519 41.0212 6.91556 40.9025C6.92932 40.8909 8.31943 39.7229 10.4357 38.6236C10.5275 38.5772 10.6092 38.513 10.6761 38.4348C10.743 38.3566 10.7936 38.2659 10.8252 38.168C10.8568 38.0701 10.8686 37.9669 10.86 37.8643C10.8514 37.7618 10.8226 37.662 10.7752 37.5707C10.7277 37.4794 10.6627 37.3984 10.5837 37.3324C10.5048 37.2664 10.4135 37.2168 10.3153 37.1863C10.217 37.1558 10.1136 37.1451 10.0112 37.1549C9.90879 37.1646 9.80932 37.1945 9.71855 37.243C7.93415 38.17 6.63969 39.1353 6.13805 39.5307H0.777919C0.57161 39.5307 0.373759 39.6127 0.227877 39.7586C0.0819953 39.9044 2.74474e-05 40.1023 0 40.3086L0 50.5972C0 50.8035 0.081959 51.0014 0.227847 51.1473C0.373735 51.2932 0.571602 51.3751 0.777919 51.3751H6.37852L23.9905 52.9474C24.3883 52.9829 24.7852 52.9999 25.1822 52.9999C30.2329 52.9999 35.2028 50.2445 39.625 47.7928C40.1622 47.495 40.6927 47.2008 41.2159 46.9156C41.3971 46.8169 41.5316 46.6502 41.5899 46.4523C41.6482 46.2544 41.6255 46.0415 41.5268 45.8603C41.4779 45.7706 41.4119 45.6914 41.3324 45.6272C41.2529 45.563 41.1616 45.5151 41.0636 45.4862C40.9656 45.4573 40.8629 45.448 40.7613 45.4589C40.6597 45.4697 40.5612 45.5005 40.4715 45.5494Z" fill="#8761ED"/>
<path d="M52.4002 36.9326C51.5731 35.8363 50.132 35.4576 48.8883 35.9783C48.8567 35.4761 48.6851 34.9928 48.3931 34.5831C47.6153 33.4942 46.1365 33.1434 44.9535 33.767L43.1034 34.742C43.0801 34.3039 42.9495 33.8783 42.7231 33.5025C41.9851 32.2824 40.4254 31.8587 39.1723 32.5378L37.7896 33.2875C37.7644 32.7447 37.5793 32.2215 37.2576 31.7836C36.4468 30.6803 34.9787 30.3408 33.7669 30.9765L23.784 36.2123C22.6614 35.7813 19.0827 34.6156 14.9014 35.394C14.1801 35.5284 13.437 35.7226 12.6925 35.9716C12.4986 36.0384 12.3389 36.179 12.2482 36.363C12.1575 36.5469 12.1431 36.7592 12.2081 36.9537C12.2731 37.1482 12.4123 37.3091 12.5954 37.4015C12.7785 37.4939 12.9906 37.5103 13.1857 37.4471C13.8623 37.2209 14.5352 37.0448 15.1861 36.9236C19.6496 36.0925 23.4695 37.7622 23.5064 37.7786C23.6067 37.8237 23.7153 37.8469 23.8252 37.8469H34.2161C34.9544 37.8469 35.555 38.4493 35.555 39.1896C35.555 39.8645 35.0515 40.4371 34.3839 40.5217L21.2142 42.1897C21.0259 42.2135 20.8527 42.3054 20.7274 42.4479C20.6021 42.5905 20.5333 42.7739 20.5339 42.9637C20.5344 43.1536 20.6044 43.3366 20.7306 43.4784C20.8567 43.6202 21.0304 43.711 21.2188 43.7337L26.8121 44.4079C32.2302 45.0607 37.6159 44.0039 42.3873 41.3515L49.3768 37.466C49.9917 37.1456 50.7397 37.3148 51.1581 37.8695C51.6808 38.5293 51.4536 39.5875 50.705 39.9728L43.2056 44.0596C42.309 44.5308 43.0775 45.9225 43.9501 45.4257L51.4495 41.3389C51.825 41.1344 52.1519 40.8513 52.408 40.5089C52.664 40.1665 52.8432 39.7729 52.9333 39.355C53.0239 38.9366 53.0231 38.5036 52.9311 38.0856C52.8391 37.6675 52.658 37.2743 52.4002 36.9326ZM34.4895 32.3542C35.0152 32.0785 35.652 32.226 36.004 32.7049C36.4365 33.2627 36.2402 34.1474 35.6114 34.4684L32.2492 36.2912H26.9833L34.4895 32.3542ZM35.197 36.4627L39.9138 33.9055C40.1646 33.7694 40.4583 33.7352 40.7336 33.8102C41.009 33.8851 41.2448 34.0634 41.392 34.3079C41.7271 34.8341 41.5174 35.594 40.9589 35.8723L36.8678 38.0285C36.55 37.3038 35.9448 36.7332 35.197 36.4627ZM41.6314 39.9917C37.3528 42.3703 32.5483 43.3834 27.694 42.9371L34.5795 42.065C35.8568 41.9033 36.8556 40.916 37.0683 39.6813L45.6788 35.1432C46.1767 34.8808 46.7994 35.0286 47.1271 35.4873C47.5239 36.0145 47.3396 36.8373 46.7549 37.1435L41.6314 39.9917ZM18.115 21.1358C18.9936 21.1358 19.8388 20.9458 20.6269 20.5709C20.7192 20.5271 20.8019 20.4655 20.8704 20.3896C20.9388 20.3138 20.9916 20.2252 21.0259 20.129C21.0601 20.0327 21.075 19.9306 21.0697 19.8286C21.0645 19.7266 21.0392 19.6266 20.9953 19.5343C20.9515 19.4421 20.8899 19.3594 20.814 19.2909C20.7382 19.2225 20.6496 19.1696 20.5533 19.1354C20.4571 19.1012 20.355 19.0863 20.253 19.0915C20.151 19.0968 20.051 19.122 19.9587 19.1659C19.381 19.4407 18.7606 19.58 18.115 19.58C15.7444 19.58 13.8157 17.6513 13.8157 15.2807C13.8157 12.9101 15.7444 10.9815 18.115 10.9815C20.4856 10.9815 22.4143 12.9101 22.4143 15.2807C22.4145 16.0057 22.2315 16.7191 21.8822 17.3544C21.8328 17.4438 21.8015 17.5421 21.7902 17.6436C21.7788 17.7452 21.7875 17.8479 21.8158 17.9461C21.8442 18.0442 21.8916 18.1358 21.9553 18.2156C22.019 18.2954 22.0979 18.3619 22.1873 18.4113C22.2768 18.4607 22.375 18.4919 22.4765 18.5033C22.5781 18.5147 22.6808 18.5059 22.779 18.4776C22.8771 18.4493 22.9687 18.4019 23.0485 18.3381C23.1284 18.2744 23.1949 18.1956 23.2442 18.1061C23.719 17.2457 23.9701 16.2687 23.9701 15.2806C23.9701 12.052 21.3435 9.42554 18.115 9.42554C14.8866 9.42554 12.26 12.052 12.26 15.2806C12.26 18.5091 14.8866 21.1358 18.115 21.1358Z" fill="#8761ED"/>
<path d="M5.96782 17.5939L7.58007 17.8362C7.84218 18.9258 8.27386 19.9674 8.85931 20.923L7.8901 22.235C7.43215 22.8551 7.4954 23.7006 8.04051 24.2455L9.1504 25.3555C9.69541 25.9005 10.541 25.9637 11.161 25.5058L12.4729 24.5367C13.4285 25.1222 14.4701 25.5539 15.5597 25.816L15.8021 27.4283C15.9167 28.1905 16.5593 28.7436 17.33 28.7436H18.8996C19.6704 28.7436 20.313 28.1905 20.4275 27.4282L20.6698 25.816C21.7594 25.5539 22.801 25.1222 23.7565 24.5367L25.0686 25.5059C25.6885 25.9637 26.5342 25.9006 27.0791 25.3556L28.189 24.2457C28.7341 23.7008 28.7973 22.8552 28.3394 22.2351L27.3703 20.9232C27.9558 19.9676 28.3875 18.926 28.6495 17.8364L30.2616 17.5941C31.0238 17.4795 31.5771 16.837 31.5771 16.0661V16.0591H36.1935V25.974C36.1935 26.9743 37.0073 27.7881 38.0076 27.7881H41.3309C41.6866 29.3737 43.1048 30.5624 44.7963 30.5624C46.755 30.5624 48.3486 28.9689 48.3486 27.0101C48.3486 25.0514 46.7551 23.4577 44.7963 23.4577C43.1047 23.4577 41.6865 24.6465 41.3308 26.2323H38.0075C37.939 26.2322 37.8734 26.2049 37.825 26.1565C37.7766 26.1081 37.7493 26.0425 37.7492 25.974V16.0591H41.3308C41.6865 17.6448 43.1047 18.8336 44.7963 18.8336C46.755 18.8336 48.3486 17.2401 48.3486 15.2813C48.3486 13.3224 46.7551 11.7289 44.7963 11.7289C43.1048 11.7289 41.6866 12.9176 41.3308 14.5032H37.7494V4.58853C37.7495 4.52006 37.7768 4.45441 37.8252 4.40599C37.8736 4.35758 37.9392 4.33034 38.0077 4.33026H41.331C41.6868 5.91601 43.1049 7.10468 44.7965 7.10468C46.7552 7.10468 48.3488 5.51116 48.3488 3.55234C48.3488 1.59352 46.7551 0 44.7964 0C43.1049 0 41.6868 1.18867 41.3309 2.77442H38.0076C37.0073 2.77442 36.1935 3.58816 36.1935 4.58843V14.5031H31.5771V14.4963C31.5771 13.7256 31.0239 13.083 30.2618 12.9684L28.6495 12.7261C28.3874 11.6365 27.9557 10.5949 27.3703 9.63936L28.3394 8.3274C28.7973 7.70735 28.7342 6.86173 28.1891 6.31682L27.0792 5.20683C26.5343 4.66182 25.6886 4.59867 25.0686 5.05652L23.7566 6.02563C22.8011 5.44015 21.7595 5.00847 20.6699 4.74639L20.4276 3.13414C20.3131 2.37195 19.6705 1.81866 18.8997 1.81866H17.33C16.5593 1.81866 15.9167 2.37185 15.8021 3.13414L15.5597 4.74639C14.4701 5.00851 13.4285 5.44019 12.4729 6.02563L11.161 5.05652C10.5411 4.59857 9.69541 4.66171 9.1504 5.20683L8.04051 6.31662C7.4954 6.86162 7.43215 7.70724 7.8901 8.3272L8.85921 9.63915C8.27371 10.5947 7.84203 11.6363 7.57997 12.7259L5.96771 12.9682C5.20553 13.0828 4.65234 13.7254 4.65234 14.4961V16.0657C4.65234 16.8368 5.20563 17.4793 5.96782 17.5939ZM44.7964 25.0134C45.8972 25.0134 46.7929 25.909 46.7929 27.0099C46.7929 28.1108 45.8972 29.0064 44.7964 29.0064C43.6955 29.0064 42.7999 28.1108 42.7999 27.0099C42.7999 25.909 43.6955 25.0134 44.7964 25.0134ZM44.7964 13.2845C45.8972 13.2845 46.7929 14.1802 46.7929 15.2811C46.7929 16.3819 45.8972 17.2776 44.7964 17.2776C43.6955 17.2776 42.7999 16.3819 42.7999 15.2811C42.7999 14.1802 43.6955 13.2845 44.7964 13.2845ZM44.7964 1.55573C45.8972 1.55573 46.7929 2.45135 46.7929 3.55224C46.7929 4.65312 45.8972 5.54874 44.7964 5.54874C43.6955 5.54874 42.7999 4.65312 42.7999 3.55224C42.7999 2.45145 43.6955 1.55573 44.7964 1.55573ZM6.20808 14.5054L8.34329 14.1844C8.50307 14.1604 8.6514 14.0873 8.7677 13.9751C8.88399 13.863 8.96247 13.7174 8.99223 13.5586C9.22928 12.2943 9.7187 11.1135 10.4466 10.0489C10.5378 9.91552 10.5852 9.75709 10.5823 9.59558C10.5793 9.43407 10.5261 9.27748 10.4302 9.14756L9.14698 7.41026L10.2439 6.31341L11.9812 7.59669C12.1112 7.69265 12.2677 7.74579 12.4292 7.74874C12.5907 7.75169 12.7491 7.7043 12.8824 7.61315C13.9472 6.88512 15.128 6.3958 16.3921 6.15865C16.5509 6.12888 16.6965 6.0504 16.8087 5.93411C16.9208 5.81781 16.994 5.66948 17.018 5.50971L17.339 3.3745H18.8903L19.2113 5.50971C19.2353 5.66948 19.3084 5.81781 19.4206 5.93411C19.5327 6.0504 19.6783 6.12888 19.8371 6.15865C21.1013 6.3957 22.2822 6.88512 23.3468 7.61315C23.4802 7.70432 23.6386 7.75173 23.8001 7.74878C23.9616 7.74583 24.1182 7.69267 24.2481 7.59669L25.9854 6.31341L27.0824 7.41026L25.7992 9.14766C25.7032 9.2776 25.6501 9.43418 25.6472 9.59569C25.6442 9.75719 25.6916 9.91561 25.7827 10.049C26.5108 11.1136 27.0001 12.2944 27.2372 13.5588C27.2671 13.7175 27.3455 13.8631 27.4618 13.9752C27.5781 14.0874 27.7264 14.1606 27.8862 14.1846L30.0214 14.5056V16.0569L27.8862 16.3779C27.7264 16.4019 27.5781 16.4751 27.4618 16.5872C27.3455 16.6994 27.267 16.845 27.2372 17.0038C27.0001 18.2681 26.5108 19.4489 25.7827 20.5135C25.6916 20.6469 25.6442 20.8053 25.6471 20.9668C25.6501 21.1283 25.7032 21.2848 25.7992 21.4148L27.0825 23.1521L25.9855 24.249L24.2482 22.9657C24.1183 22.8698 23.9617 22.8166 23.8002 22.8137C23.6387 22.8108 23.4803 22.8582 23.3469 22.9494C22.2823 23.6774 21.1015 24.1667 19.8371 24.4039C19.6784 24.4337 19.5328 24.5122 19.4206 24.6285C19.3085 24.7447 19.2353 24.8931 19.2113 25.0528L18.8903 27.188H17.339L17.018 25.0528C16.9939 24.8931 16.9208 24.7447 16.8086 24.6285C16.6965 24.5122 16.5509 24.4337 16.3921 24.4039C15.1278 24.1667 13.947 23.6774 12.8823 22.9494C12.749 22.8582 12.5906 22.8108 12.4291 22.8137C12.2676 22.8167 12.1111 22.8698 11.9811 22.9657L10.2438 24.249L9.14688 23.1521L10.4302 21.4148C10.5261 21.2848 10.5793 21.1283 10.5822 20.9668C10.5852 20.8053 10.5378 20.6469 10.4466 20.5135C9.7186 19.4489 9.22928 18.2681 8.99223 17.0039C8.96246 16.8451 8.88398 16.6995 8.76768 16.5873C8.65139 16.4752 8.50306 16.402 8.34329 16.378L6.20808 16.057V14.5054Z" fill="#8761ED"/>
</svg>
