<svg width="51" height="53" viewBox="0 0 51 53" fill="none" xmlns="http://www.w3.org/2000/svg">
<path d="M40.6023 23.6637C40.399 23.4701 40.1168 23.3604 39.8291 23.3604C39.5415 23.3604 39.2593 23.4701 39.0558 23.6637C38.8524 23.8562 38.7354 24.1233 38.7354 24.3955C38.7354 24.6678 38.8523 24.9338 39.0558 25.1274C39.2593 25.3199 39.5415 25.4307 39.8291 25.4307C40.1168 25.4307 40.399 25.3199 40.6023 25.1274C40.8067 24.9328 40.9219 24.6699 40.9229 24.3955C40.9229 24.1222 40.8058 23.8562 40.6023 23.6637ZM24.6185 32.0898H17.1885C16.5845 32.0898 16.0947 32.5533 16.0947 33.125C16.0947 33.6967 16.5845 34.1602 17.1885 34.1602H24.6185C25.2225 34.1602 25.7123 33.6967 25.7123 33.125C25.7123 32.5533 25.2225 32.0898 24.6185 32.0898ZM25.3916 24.3189C25.1882 24.1264 24.906 24.0156 24.6183 24.0156C24.3307 24.0156 24.0485 24.1264 23.845 24.3189C23.6417 24.5115 23.5246 24.7785 23.5246 25.0508C23.5246 25.323 23.6416 25.5901 23.845 25.7826C24.0485 25.9752 24.3307 26.0859 24.6183 26.0859C24.907 26.0859 25.1882 25.9752 25.3916 25.7826C25.5949 25.5901 25.7121 25.323 25.7121 25.0508C25.7121 24.7785 25.595 24.5115 25.3916 24.3189ZM19.4854 24.0156H8.02734C7.42338 24.0156 6.93359 24.4791 6.93359 25.0508C6.93359 25.6225 7.42338 26.0859 8.02734 26.0859H19.4854C20.0893 26.0859 20.5791 25.6225 20.5791 25.0508C20.5791 24.4791 20.0893 24.0156 19.4854 24.0156ZM33.3488 18.6328H8.02734C7.42338 18.6328 6.93359 19.0963 6.93359 19.668C6.93359 20.2397 7.42338 20.7031 8.02734 20.7031H33.3488C33.9527 20.7031 34.4425 20.2397 34.4425 19.668C34.4425 19.0963 33.9527 18.6328 33.3488 18.6328ZM33.3496 13.25H8.02734C7.42338 13.25 6.93359 13.7134 6.93359 14.2852C6.93359 14.8569 7.42338 15.3203 8.02734 15.3203H33.3496C33.9536 15.3203 34.4434 14.8569 34.4434 14.2852C34.4434 13.7134 33.9536 13.25 33.3496 13.25ZM33.3488 7.86719H8.02734C7.42338 7.86719 6.93359 8.33063 6.93359 8.90234C6.93359 9.47406 7.42338 9.9375 8.02734 9.9375H33.3488C33.9527 9.9375 34.4425 9.47406 34.4425 8.90234C34.4425 8.33063 33.9527 7.86719 33.3488 7.86719Z" fill="#8761ED"/>
<path d="M47.2656 5.58984H40.9219V3.10547C40.9219 1.39311 39.4499 0 37.6406 0H3.73438C1.92509 0 0.453125 1.39311 0.453125 3.10547V44.3047C0.453125 46.017 1.92509 47.4102 3.73438 47.4102H10.0781V49.8945C10.0781 51.6069 11.5501 53 13.3594 53H47.2656C49.0749 53 50.5469 51.6069 50.5469 49.8945V8.69531C50.5469 6.98296 49.0749 5.58984 47.2656 5.58984ZM48.3594 49.8945C48.3594 50.4653 47.8687 50.9297 47.2656 50.9297H13.3594C12.7563 50.9297 12.2656 50.4653 12.2656 49.8945V47.4102H31.9529C32.0966 47.4102 32.2388 47.3834 32.3716 47.3314C32.5043 47.2794 32.6249 47.2031 32.7265 47.107L40.6015 39.6538C40.8106 39.4559 40.919 39.1912 40.9193 38.922L40.9219 38.9219V28.9499C40.9219 28.3782 40.4321 27.9147 39.8281 27.9147C39.2242 27.9147 38.7344 28.3782 38.7344 28.9499V37.8867H33.4675C32.0294 37.8867 30.8594 38.994 30.8594 40.3552V45.3398H3.73438C3.13128 45.3398 2.64062 44.8755 2.64062 44.3047V3.10547C2.64062 2.53468 3.13128 2.07031 3.73438 2.07031H37.6406C38.2437 2.07031 38.7344 2.53468 38.7344 3.10547V19.668C38.7344 20.2397 39.2242 20.7031 39.8281 20.7031C40.4321 20.7031 40.9219 20.2397 40.9219 19.668V7.66016H47.2656C47.8687 7.66016 48.3594 8.12453 48.3594 8.69531V49.8945ZM33.0469 43.8759V40.3552C33.047 40.2496 33.0913 40.1484 33.1702 40.0738C33.2491 39.9991 33.356 39.9571 33.4675 39.957H37.1876L33.0469 43.8759Z" fill="#8761ED"/>
<path d="M10.2969 29.3984C8.12567 29.3984 6.35938 31.0701 6.35938 33.125C6.35938 35.1799 8.12567 36.8516 10.2969 36.8516C12.4681 36.8516 14.2344 35.1799 14.2344 33.125C14.2344 31.0701 12.4681 29.3984 10.2969 29.3984ZM10.2969 34.7812C9.33197 34.7812 8.54688 34.0382 8.54688 33.125C8.54688 32.2118 9.33197 31.4688 10.2969 31.4688C11.2618 31.4688 12.0469 32.2118 12.0469 33.125C12.0469 34.0382 11.2618 34.7812 10.2969 34.7812Z" fill="#8761ED"/>
</svg>
