<svg width="43" height="38" viewBox="0 0 43 38" fill="none" xmlns="http://www.w3.org/2000/svg">
<path d="M38.168 8.58333H29.8346V4.41667L25.668 0.25H17.3346L13.168 4.41667V8.58333H4.83464C2.54297 8.58333 0.667969 10.4583 0.667969 12.75V23.1667C0.667969 24.7292 1.5013 26.0417 2.7513 26.7708V33.5833C2.7513 35.8958 4.60547 37.75 6.91797 37.75H36.0846C38.3971 37.75 40.2513 35.8958 40.2513 33.5833V26.75C41.4805 26.0208 42.3346 24.6875 42.3346 23.1667V12.75C42.3346 10.4583 40.4596 8.58333 38.168 8.58333ZM17.3346 4.41667H25.668V8.58333H17.3346V4.41667ZM4.83464 12.75H38.168V23.1667H27.7513V16.9167H15.2513V23.1667H4.83464V12.75ZM23.5846 25.25H19.418V21.0833H23.5846V25.25ZM36.0846 33.5833H6.91797V27.3333H15.2513V29.4167H27.7513V27.3333H36.0846V33.5833Z" fill="#FFAB91"/>
</svg>
