<svg width="37" height="53" viewBox="0 0 37 53" fill="none" xmlns="http://www.w3.org/2000/svg">
<g clip-path="url(#clip0_2279_2032)">
<path d="M28.6979 39.0652C27.4646 39.0652 26.3039 38.5835 25.432 37.7085C24.56 36.8335 24.0801 35.6687 24.0801 34.431C24.0801 33.1933 24.56 32.0286 25.432 31.1535C26.3039 30.2785 27.4646 29.7969 28.6979 29.7969C29.9312 29.7969 31.0919 30.2785 31.9638 31.1535C32.8358 32.0286 33.3157 33.1933 33.3157 34.431C33.3157 35.6687 32.8358 36.8335 31.9638 37.7085C31.0919 38.5835 29.9312 39.0652 28.6979 39.0652ZM28.6979 31.3301C26.9942 31.3301 25.6098 32.7213 25.6098 34.4291C25.6098 36.1388 26.9961 37.5281 28.6979 37.5281C30.4016 37.5281 31.786 36.1369 31.786 34.4291C31.786 32.7213 30.4016 31.3301 28.6979 31.3301Z" fill="url(#paint0_linear_2279_2032)"/>
<path d="M34.9413 46.2898L22.3977 46.2822C21.9751 46.2822 21.6328 45.9387 21.6328 45.5146V44.5647C21.6328 43.3808 21.9598 42.2256 22.5755 41.222C23.174 40.2472 24.0249 39.4528 25.0345 38.9213C25.4093 38.7236 25.8701 38.8695 26.0671 39.2436C26.264 39.6197 26.1187 40.0822 25.7458 40.2798C24.153 41.1184 23.1625 42.761 23.1625 44.5647V44.747L34.1765 44.7547V44.5647C34.1765 42.7706 33.1936 41.1338 31.6142 40.2914C31.2413 40.0918 31.0998 39.6274 31.2968 39.2532C31.4957 38.8791 31.9584 38.7371 32.3313 38.9347C34.4136 40.0438 35.7062 42.2007 35.7062 44.5647V45.5223C35.7062 45.7257 35.6259 45.9214 35.4825 46.0653C35.3391 46.2092 35.144 46.2898 34.9413 46.2898Z" fill="url(#paint1_linear_2279_2032)"/>
<path d="M15.2302 53H1.35953C0.609974 53 0 52.3878 0 51.6356V7.56234C0 6.81013 0.609974 6.198 1.35953 6.198H8.63716C9.05974 6.198 9.40202 6.54148 9.40202 6.96556C9.40202 7.38963 9.05974 7.73312 8.63716 7.73312H1.52972V51.4648H15.2302C15.6528 51.4648 15.9951 51.8083 15.9951 52.2324C15.9951 52.6565 15.6528 53 15.2302 53Z" fill="#8761ED"/>
<path d="M36.236 22.4779C35.8134 22.4779 35.4712 22.1345 35.4712 21.7104V7.73312H28.3293C27.9067 7.73312 27.5645 7.38963 27.5645 6.96556C27.5645 6.54148 27.9067 6.198 28.3293 6.198H35.6414C36.3909 6.198 37.0009 6.81013 37.0009 7.56234V21.7085C37.0009 22.1325 36.6586 22.4779 36.236 22.4779Z" fill="#8761ED"/>
<path d="M6.9133 10.9569C6.71061 10.9569 6.51557 10.8763 6.37216 10.7324C6.22875 10.5885 6.14844 10.3928 6.14844 10.1894C6.14844 9.3508 6.43335 8.52759 6.99361 7.74084C7.47164 7.07114 8.12942 6.45518 8.94973 5.91213C10.2997 5.01792 11.9614 4.42498 13.4108 4.30217C13.4069 4.22158 13.405 4.13907 13.405 4.05847C13.405 2.67686 13.9615 1.57542 15.0151 0.873099C15.8851 0.293592 17.0572 0 18.5009 0C19.9446 0 21.1167 0.293592 21.9867 0.873099C23.0403 1.57542 23.5968 2.67686 23.5968 4.05847C23.5968 4.13907 23.5948 4.22158 23.591 4.30217C25.0404 4.42498 26.7021 5.01792 28.0521 5.91213C28.8724 6.45518 29.5301 7.07114 30.0082 7.74084C30.5684 8.52759 30.8533 9.3508 30.8533 10.1894C30.8533 10.6134 30.5111 10.9569 30.0885 10.9569H6.9133ZM7.81774 9.4218H29.1821C28.903 8.64464 28.2184 7.86173 27.2088 7.19395C25.943 6.35539 24.3119 5.81427 23.0499 5.81427H22.7172C22.4839 5.81427 22.264 5.70681 22.1187 5.52451C21.9733 5.3403 21.9198 5.10043 21.9733 4.874C22.0345 4.6092 22.0651 4.33479 22.0651 4.06039C22.0651 3.19305 21.7611 2.56941 21.1377 2.15492C20.5316 1.75196 19.6195 1.53704 18.499 1.53704C17.3785 1.53704 16.4645 1.75004 15.8602 2.15492C15.2369 2.57133 14.9328 3.19497 14.9328 4.06039C14.9328 4.33479 14.9634 4.6092 15.0246 4.874C15.0782 5.10235 15.0246 5.34222 14.8793 5.52451C14.734 5.70873 14.5141 5.81427 14.2808 5.81427H13.9481C12.688 5.81427 11.055 6.35539 9.78916 7.19395C8.78337 7.86173 8.09691 8.64464 7.81774 9.4218Z" fill="#8761ED"/>
<path d="M18.5007 4.97007C19.0868 4.97007 19.5619 4.49325 19.5619 3.90508C19.5619 3.3169 19.0868 2.84009 18.5007 2.84009C17.9146 2.84009 17.4395 3.3169 17.4395 3.90508C17.4395 4.49325 17.9146 4.97007 18.5007 4.97007Z" fill="#8761ED"/>
<path d="M9.07252 21.6812C8.87748 21.6812 8.68053 21.6064 8.53138 21.4567L6.66513 19.5839C6.36683 19.2845 6.36683 18.799 6.66513 18.4978C6.96342 18.1984 7.44719 18.1984 7.7474 18.4978L9.07252 19.8276L13.0804 15.8056C13.3787 15.5062 13.8624 15.5062 14.1626 15.8056C14.4609 16.1049 14.4609 16.5904 14.1626 16.8917L9.61557 21.4548C9.46259 21.6064 9.26756 21.6812 9.07252 21.6812Z" fill="#8761ED"/>
<path d="M29.7966 17.6806H17.6985C17.2759 17.6806 16.9336 17.3371 16.9336 16.9131C16.9336 16.489 17.2759 16.1455 17.6985 16.1455H29.7985C30.2211 16.1455 30.5634 16.489 30.5634 16.9131C30.5634 17.3371 30.2192 17.6806 29.7966 17.6806Z" fill="#8761ED"/>
<path d="M26.9284 21.1193H17.6985C17.2759 21.1193 16.9336 20.7759 16.9336 20.3518C16.9336 19.9277 17.2759 19.5842 17.6985 19.5842H26.9303C27.3529 19.5842 27.6951 19.9277 27.6951 20.3518C27.6951 20.7759 27.351 21.1193 26.9284 21.1193Z" fill="#8761ED"/>
<path d="M9.07252 32.648C8.87748 32.648 8.68053 32.5732 8.53138 32.4235L6.66513 30.5507C6.36683 30.2513 6.36683 29.7658 6.66513 29.4646C6.96342 29.1652 7.44719 29.1652 7.7474 29.4646L9.07252 30.7944L13.0804 26.7724C13.3787 26.473 13.8624 26.473 14.1626 26.7724C14.4609 27.0717 14.4609 27.5572 14.1626 27.8585L9.61557 32.4216C9.46259 32.5732 9.26756 32.648 9.07252 32.648Z" fill="#8761ED"/>
<path d="M9.07252 43.6148C8.87748 43.6148 8.68053 43.54 8.53138 43.3903L6.66513 41.5175C6.36683 41.2181 6.36683 40.7326 6.66513 40.4314C6.96342 40.132 7.44719 40.132 7.7474 40.4314L9.07252 41.7612L13.0804 37.7392C13.3787 37.4398 13.8624 37.4398 14.1626 37.7392C14.4629 38.0385 14.4609 38.524 14.1626 38.8253L9.61557 43.3884C9.46259 43.54 9.26756 43.6148 9.07252 43.6148Z" fill="#8761ED"/>
</g>
<defs>
<linearGradient id="paint0_linear_2279_2032" x1="28.6979" y1="29.7969" x2="28.6979" y2="39.0652" gradientUnits="userSpaceOnUse">
<stop stop-color="#8C66EF"/>
<stop offset="1" stop-color="#5539EE"/>
</linearGradient>
<linearGradient id="paint1_linear_2279_2032" x1="28.6695" y1="38.833" x2="28.6695" y2="46.2898" gradientUnits="userSpaceOnUse">
<stop stop-color="#8C66EF"/>
<stop offset="1" stop-color="#5539EE"/>
</linearGradient>
<clipPath id="clip0_2279_2032">
<rect width="37" height="53" fill="white"/>
</clipPath>
</defs>
</svg>
