<svg width="43" height="50" viewBox="0 0 43 50" fill="none" xmlns="http://www.w3.org/2000/svg">
<g clip-path="url(#clip0_4169_896)">
<path d="M32.7387 10.015C29.98 10.015 27.7258 7.77157 27.7258 5.00215C27.7258 2.23272 29.98 0 32.7387 0C35.4974 0 37.7516 2.24345 37.7516 5.01288C37.7516 7.78231 35.5081 10.0258 32.7387 10.0258V10.015Z" fill="#8761ED"/>
<path d="M37.7516 45.0836C37.6336 45.0836 37.5155 45.0836 37.3974 45.0622C36.0234 44.869 35.0788 43.6023 35.272 42.2283L37.2901 28.0806L25.6327 30.0235C24.2694 30.2489 22.9813 29.3258 22.7452 27.9626C22.5198 26.5993 23.4429 25.3112 24.8062 25.0751L39.8341 22.574C40.6284 22.4452 41.4227 22.6921 41.9916 23.2502C42.5606 23.8084 42.8289 24.6027 42.7216 25.3971L40.2205 42.9261C40.038 44.1712 38.9753 45.0729 37.7409 45.0729L37.7516 45.0836Z" fill="#8761ED"/>
<path d="M20.5661 26.2988C20.083 26.2988 19.6 26.1592 19.1706 25.8694C18.0221 25.0965 17.7215 23.5401 18.4944 22.3915L22.8632 15.9081L13.1487 10.6053L6.96582 16.799C5.98901 17.7758 4.40034 17.7758 3.42353 16.799C2.44671 15.8222 2.44671 14.2335 3.42353 13.2567L10.9375 5.74274C11.7211 4.95915 12.934 4.7874 13.9109 5.31338L27.6829 12.8273C28.3055 13.1601 28.7456 13.7505 28.9173 14.4375C29.089 15.1245 28.9602 15.8436 28.5631 16.434L22.6485 25.2039C22.1655 25.9231 21.3711 26.3095 20.5661 26.3095V26.2988Z" fill="#8761ED"/>
<path d="M15.2742 50C14.5657 50 13.8465 49.9463 13.138 49.8497C10.2613 49.4418 7.57772 48.2074 5.38794 46.2967C3.19816 44.386 1.62023 41.8956 0.815163 39.1048C0.010096 36.3031 0.0422987 33.3619 0.890302 30.5818C1.2982 29.2615 2.69365 28.5101 4.01396 28.918C5.33427 29.3259 6.08566 30.7213 5.67776 32.0416C5.10885 33.8987 5.09812 35.863 5.62409 37.72C6.1608 39.5878 7.21276 41.2409 8.67261 42.5182C10.1325 43.7956 11.9143 44.6114 13.8358 44.8905C15.7572 45.1588 17.7001 44.8905 19.4605 44.064C20.7164 43.4843 22.2085 44.0318 22.7881 45.2877C23.3678 46.5436 22.8203 48.0356 21.5644 48.6153C19.5786 49.5384 17.4317 50 15.2634 50H15.2742Z" fill="#8761ED"/>
<path d="M27.1355 41.3268C26.8886 41.3268 26.6417 41.2946 26.4056 41.2195C25.0853 40.8116 24.3339 39.4162 24.7418 38.0958C25.3107 36.2388 25.3214 34.2745 24.7954 32.4174C24.2587 30.5497 23.2068 28.8966 21.7469 27.6192C20.2871 26.3419 18.5052 25.5261 16.5837 25.247C14.6623 24.9679 12.7194 25.247 10.959 26.0735C9.70311 26.6532 8.21106 26.1057 7.63141 24.8498C7.05176 23.5939 7.59921 22.1019 8.85511 21.5222C11.4957 20.2985 14.4154 19.8799 17.2922 20.2878C20.169 20.6957 22.8525 21.9301 25.0423 23.8408C27.2321 25.7515 28.81 28.2418 29.6151 31.0327C30.4202 33.8236 30.388 36.7755 29.54 39.5557C29.2072 40.6291 28.2196 41.3268 27.1462 41.3268H27.1355Z" fill="#8761ED"/>
</g>
<defs>
<clipPath id="clip0_4169_896">
<rect width="42.529" height="50" fill="white" transform="translate(0.235474)"/>
</clipPath>
</defs>
</svg>
