<svg width="80" height="16" viewBox="0 0 80 16" fill="none" xmlns="http://www.w3.org/2000/svg">
<path d="M7.99998 11.8467L12.12 14.3333L11.0266 9.64666L14.6666 6.49332L9.87331 6.08666L7.99998 1.66666L6.12665 6.08666L1.33331 6.49332L4.97331 9.64666L3.87998 14.3333L7.99998 11.8467Z" fill="#FFC107"/>
<path d="M24 11.8467L28.12 14.3333L27.0266 9.64666L30.6666 6.49332L25.8733 6.08666L24 1.66666L22.1266 6.08666L17.3333 6.49332L20.9733 9.64666L19.88 14.3333L24 11.8467Z" fill="#FFC107"/>
<path d="M40 11.8467L44.12 14.3333L43.0266 9.64666L46.6666 6.49332L41.8733 6.08666L40 1.66666L38.1266 6.08666L33.3333 6.49332L36.9733 9.64666L35.88 14.3333L40 11.8467Z" fill="#FFC107"/>
<path d="M56 11.8467L60.12 14.3333L59.0267 9.64666L62.6667 6.49332L57.8734 6.08666L56 1.66666L54.1267 6.08666L49.3334 6.49332L52.9734 9.64666L51.88 14.3333L56 11.8467Z" fill="#FFC107"/>
<path d="M72 11.8467L76.12 14.3333L75.0267 9.64666L78.6667 6.49332L73.8734 6.08666L72 1.66666L70.1267 6.08666L65.3334 6.49332L68.9734 9.64666L67.88 14.3333L72 11.8467Z" fill="#FFC107"/>
</svg>
