<svg width="50" height="30" viewBox="0 0 50 30" fill="none" xmlns="http://www.w3.org/2000/svg">
<path d="M25 0.418701C23.0661 0.418701 21.2115 1.18693 19.844 2.55438C18.4766 3.92183 17.7083 5.7765 17.7083 7.71037C17.7083 9.64424 18.4766 11.4989 19.844 12.8664C21.2115 14.2338 23.0661 15.002 25 15.002C26.9339 15.002 28.7885 14.2338 30.156 12.8664C31.5234 11.4989 32.2917 9.64424 32.2917 7.71037C32.2917 5.7765 31.5234 3.92183 30.156 2.55438C28.7885 1.18693 26.9339 0.418701 25 0.418701ZM25 4.58537C25.8288 4.58537 26.6237 4.91461 27.2097 5.50066C27.7958 6.08671 28.125 6.88157 28.125 7.71037C28.125 8.53917 27.7958 9.33403 27.2097 9.92008C26.6237 10.5061 25.8288 10.8354 25 10.8354C24.1712 10.8354 23.3763 10.5061 22.7903 9.92008C22.2042 9.33403 21.875 8.53917 21.875 7.71037C21.875 6.88157 22.2042 6.08671 22.7903 5.50066C23.3763 4.91461 24.1712 4.58537 25 4.58537ZM11.4583 6.6687C10.077 6.6687 8.75224 7.21743 7.77549 8.19419C6.79873 9.17094 6.25 10.4957 6.25 11.877C6.25 13.8354 7.35417 15.5229 8.9375 16.4187C9.6875 16.8354 10.5417 17.0854 11.4583 17.0854C12.375 17.0854 13.2292 16.8354 13.9792 16.4187C14.75 15.9812 15.3958 15.3562 15.875 14.6062C14.3573 12.6282 13.5368 10.2035 13.5417 7.71037V7.12703C12.9167 6.83537 12.2083 6.6687 11.4583 6.6687ZM38.5417 6.6687C37.7917 6.6687 37.0833 6.83537 36.4583 7.12703V7.71037C36.4583 10.2104 35.6458 12.627 34.125 14.6062C34.375 15.002 34.6458 15.3145 34.9583 15.627C35.9191 16.5585 37.2035 17.0812 38.5417 17.0854C39.4583 17.0854 40.3125 16.8354 41.0625 16.4187C42.6458 15.5229 43.75 13.8354 43.75 11.877C43.75 10.4957 43.2013 9.17094 42.2245 8.19419C41.2478 7.21743 39.923 6.6687 38.5417 6.6687ZM25 19.1687C20.125 19.1687 10.4167 21.6062 10.4167 26.4604V29.5854H39.5833V26.4604C39.5833 21.6062 29.875 19.1687 25 19.1687ZM9.8125 20.3145C5.79167 20.7937 0 22.8354 0 26.4604V29.5854H6.25V25.5645C6.25 23.4604 7.6875 21.7104 9.8125 20.3145ZM40.1875 20.3145C42.3125 21.7104 43.75 23.4604 43.75 25.5645V29.5854H50V26.4604C50 22.8354 44.2083 20.7937 40.1875 20.3145ZM25 23.3354C28.1875 23.3354 31.75 24.377 33.8125 25.4187H16.1875C18.25 24.377 21.8125 23.3354 25 23.3354Z" fill="#FFC107"/>
</svg>
