<svg width="18" height="20" viewBox="0 0 18 20" fill="none" xmlns="http://www.w3.org/2000/svg">
<path d="M17.3549 4.94913C16.2253 4.94913 15.1829 4.57489 14.3459 3.94355C13.386 3.21981 12.6963 2.15817 12.4527 0.934544C12.3916 0.626874 12.3595 0.314153 12.3568 0.000488281H9.12975V8.81835L9.12589 13.6483C9.12589 14.9396 8.285 16.0345 7.11937 16.4195C6.77022 16.535 6.40248 16.5838 6.03531 16.5634C5.54972 16.5367 5.09468 16.3902 4.69917 16.1535C3.85752 15.6502 3.28688 14.737 3.27141 13.6924C3.24706 12.0597 4.56695 10.7286 6.19846 10.7286C6.5205 10.7286 6.82979 10.7812 7.11937 10.8767V7.60013C6.81394 7.5549 6.50311 7.53131 6.18879 7.53131C4.40303 7.53131 2.73286 8.27361 1.539 9.6109C0.636647 10.6215 0.0953887 11.9109 0.0118804 13.2628C-0.097531 15.0389 0.552365 16.7273 1.81272 17.9729C1.99791 18.1558 2.19238 18.3255 2.39573 18.4821C3.47632 19.3137 4.79737 19.7645 6.18879 19.7645C6.50311 19.7645 6.81394 19.7413 7.11937 19.6961C8.41916 19.5035 9.61843 18.9086 10.5649 17.9729C11.7278 16.8235 12.3703 15.2976 12.3773 13.6734L12.3607 6.46078C12.9168 6.88972 13.526 7.24499 14.1731 7.51778C15.1857 7.94499 16.2593 8.16149 17.3642 8.16111V4.94836C17.365 4.94913 17.3557 4.94913 17.3549 4.94913Z" fill="white"/>
</svg>
