<svg width="20" height="14" viewBox="0 0 20 14" fill="none" xmlns="http://www.w3.org/2000/svg">
<path d="M8 10.0005L13.19 7.00049L8 4.00049V10.0005ZM19.56 2.17049C19.69 2.64049 19.78 3.27049 19.84 4.07049C19.91 4.87049 19.94 5.56049 19.94 6.16049L20 7.00049C20 9.19049 19.84 10.8005 19.56 11.8305C19.31 12.7305 18.73 13.3105 17.83 13.5605C17.36 13.6905 16.5 13.7805 15.18 13.8405C13.88 13.9105 12.69 13.9405 11.59 13.9405L10 14.0005C5.81 14.0005 3.2 13.8405 2.17 13.5605C1.27 13.3105 0.69 12.7305 0.44 11.8305C0.31 11.3605 0.22 10.7305 0.16 9.93049C0.0900001 9.13049 0.0599999 8.44049 0.0599999 7.84049L0 7.00049C0 4.81049 0.16 3.20049 0.44 2.17049C0.69 1.27049 1.27 0.690488 2.17 0.440488C2.64 0.310488 3.5 0.220488 4.82 0.160488C6.12 0.0904881 7.31 0.0604882 8.41 0.0604882L10 0.000488281C14.19 0.000488281 16.8 0.160488 17.83 0.440488C18.73 0.690488 19.31 1.27049 19.56 2.17049Z" fill="white"/>
</svg>
